%TF.GenerationSoftware,KiCad,Pcbnew,9.0.2*%
%TF.CreationDate,2025-06-29T11:55:11-05:00*%
%TF.ProjectId,k3ng-Rotator-v2,6b336e67-2d52-46f7-9461-746f722d7632,rev?*%
%TF.SameCoordinates,Original*%
%TF.FileFunction,Soldermask,Bot*%
%TF.FilePolarity,Negative*%
%FSLAX46Y46*%
G04 Gerber Fmt 4.6, Leading zero omitted, Abs format (unit mm)*
G04 Created by KiCad (PCBNEW 9.0.2) date 2025-06-29 11:55:11*
%MOMM*%
%LPD*%
G01*
G04 APERTURE LIST*
G04 Aperture macros list*
%AMRoundRect*
0 Rectangle with rounded corners*
0 $1 Rounding radius*
0 $2 $3 $4 $5 $6 $7 $8 $9 X,Y pos of 4 corners*
0 Add a 4 corners polygon primitive as box body*
4,1,4,$2,$3,$4,$5,$6,$7,$8,$9,$2,$3,0*
0 Add four circle primitives for the rounded corners*
1,1,$1+$1,$2,$3*
1,1,$1+$1,$4,$5*
1,1,$1+$1,$6,$7*
1,1,$1+$1,$8,$9*
0 Add four rect primitives between the rounded corners*
20,1,$1+$1,$2,$3,$4,$5,0*
20,1,$1+$1,$4,$5,$6,$7,0*
20,1,$1+$1,$6,$7,$8,$9,0*
20,1,$1+$1,$8,$9,$2,$3,0*%
G04 Aperture macros list end*
%ADD10RoundRect,0.102000X-0.900000X-0.900000X0.900000X-0.900000X0.900000X0.900000X-0.900000X0.900000X0*%
%ADD11C,2.004000*%
%ADD12C,0.770000*%
%ADD13O,1.727200X1.727200*%
%ADD14R,1.727200X1.727200*%
%ADD15C,3.200000*%
G04 APERTURE END LIST*
D10*
%TO.C,J2*%
X100437470Y-67957204D03*
D11*
X104247470Y-67957204D03*
X108057470Y-67957204D03*
X111867470Y-67957204D03*
X115677470Y-67957204D03*
X119487470Y-67957204D03*
X123297470Y-67957204D03*
X127107470Y-67957204D03*
X130917470Y-67957204D03*
X134727470Y-67957204D03*
X138537470Y-67957204D03*
X142347470Y-67957204D03*
X146157470Y-67957204D03*
X149967470Y-67957204D03*
X153777470Y-67957204D03*
X157587470Y-67957204D03*
X161397470Y-67957204D03*
X165207470Y-67957204D03*
X169017470Y-67957204D03*
X172827470Y-67957204D03*
%TD*%
D12*
%TO.C,U1*%
X131795000Y-84275000D03*
X133095000Y-84275000D03*
X134395000Y-84275000D03*
X131795000Y-82975000D03*
X133095000Y-82975000D03*
X134395000Y-82975000D03*
%TD*%
%TO.C,U2*%
X114824367Y-84275000D03*
X116124367Y-84275000D03*
X117424367Y-84275000D03*
X114824367Y-82975000D03*
X116124367Y-82975000D03*
X117424367Y-82975000D03*
%TD*%
D13*
%TO.C,A1*%
X128911500Y-107844237D03*
X104527500Y-59584237D03*
X101987500Y-59584237D03*
X146818500Y-82444237D03*
X146818500Y-84984237D03*
X116211500Y-107844237D03*
X149358500Y-82444237D03*
X146818500Y-79904237D03*
X113671500Y-107844237D03*
D14*
X179711500Y-102764237D03*
X177171500Y-102764237D03*
X149358500Y-84984237D03*
X126371500Y-107844237D03*
X123831500Y-107844237D03*
X109607500Y-59584237D03*
D13*
X179711500Y-100224237D03*
X177171500Y-100224237D03*
X179711500Y-97684237D03*
X177171500Y-97684237D03*
X179711500Y-95144237D03*
X177171500Y-95144237D03*
X179711500Y-92604237D03*
X177171500Y-92604237D03*
X179711500Y-90064237D03*
X177171500Y-90064237D03*
X179711500Y-87524237D03*
X177171500Y-87524237D03*
X179711500Y-84984237D03*
X177171500Y-84984237D03*
X179711500Y-82444237D03*
X177171500Y-82444237D03*
X179711500Y-79904237D03*
X177171500Y-79904237D03*
X179711500Y-77364237D03*
X177171500Y-77364237D03*
X179711500Y-74824237D03*
X177171500Y-74824237D03*
X179711500Y-72284237D03*
X177171500Y-72284237D03*
X179711500Y-69744237D03*
X177171500Y-69744237D03*
X179711500Y-67204237D03*
X177171500Y-67204237D03*
X179711500Y-64664237D03*
X177171500Y-64664237D03*
X179711500Y-62124237D03*
X177171500Y-62124237D03*
X169551500Y-59584237D03*
X167011500Y-59584237D03*
X164471500Y-59584237D03*
X161931500Y-59584237D03*
X159391500Y-59584237D03*
X156851500Y-59584237D03*
X154311500Y-59584237D03*
X151771500Y-59584237D03*
X112147500Y-59584237D03*
X114687500Y-59584237D03*
X117227500Y-59584237D03*
X119767500Y-59584237D03*
X122307500Y-59584237D03*
X124847500Y-59584237D03*
X128911500Y-59584237D03*
X131451500Y-59584237D03*
X133991500Y-59584237D03*
X136531500Y-59584237D03*
X139071500Y-59584237D03*
X141611500Y-59584237D03*
X144151500Y-59584237D03*
X146691500Y-59584237D03*
X107067500Y-59584237D03*
X174631500Y-107844237D03*
X172091500Y-107844237D03*
X169551500Y-107844237D03*
X167011500Y-107844237D03*
X164471500Y-107844237D03*
X161931500Y-107844237D03*
X159391500Y-107844237D03*
X156851500Y-107844237D03*
X151771500Y-107844237D03*
X149231500Y-107844237D03*
X146691500Y-107844237D03*
X144151500Y-107844237D03*
X141611500Y-107844237D03*
X139071500Y-107844237D03*
X136531500Y-107844237D03*
X133991500Y-107844237D03*
X179711500Y-59584237D03*
X177171500Y-59584237D03*
X149358500Y-79904237D03*
X121291500Y-107844237D03*
X118751500Y-107844237D03*
D15*
X179711500Y-107844237D03*
X173361500Y-59584237D03*
X149231500Y-102764237D03*
X149231500Y-74824237D03*
D13*
X111131500Y-107844237D03*
D15*
X98431500Y-59584237D03*
X97161500Y-107844237D03*
%TD*%
D10*
%TO.C,J1*%
X100770148Y-95196454D03*
D11*
X104580148Y-95196454D03*
X108390148Y-95196454D03*
X112200148Y-95196454D03*
X116010148Y-95196454D03*
X119820148Y-95196454D03*
X123630148Y-95196454D03*
X127440148Y-95196454D03*
X131250148Y-95196454D03*
X135060148Y-95196454D03*
X138870148Y-95196454D03*
X142680148Y-95196454D03*
X146490148Y-95196454D03*
X150300148Y-95196454D03*
X154110148Y-95196454D03*
X157920148Y-95196454D03*
X161730148Y-95196454D03*
X165540148Y-95196454D03*
X169350148Y-95196454D03*
X173160148Y-95196454D03*
%TD*%
M02*
