M48
; DRILL file {KiCad 9.0.2} date 2025-06-29T11:55:14-0500
; FORMAT={-:-/ absolute / inch / decimal}
; #@! TF.CreationDate,2025-06-29T11:55:14-05:00
; #@! TF.GenerationSoftware,Kicad,Pcbnew,9.0.2
; #@! TF.FileFunction,Plated,1,6,PTH
FMAT,2
INCH
; #@! TA.AperFunction,Plated,PTH,ViaDrill
T1C0.0118
; #@! TA.AperFunction,Plated,PTH,ComponentDrill
T2C0.0130
; #@! TA.AperFunction,Plated,PTH,ComponentDrill
T3C0.0400
; #@! TA.AperFunction,Plated,PTH,ComponentDrill
T4C0.0472
%
G90
G05
T1
X3.7795Y-3.1693
X3.8386Y-3.4252
X3.9961Y-2.9724
X4.1142Y-2.9724
X4.2323Y-2.9724
X4.2913Y-3.1693
X4.2913Y-3.4449
X4.4488Y-3.4055
X4.5276Y-3.5039
X4.5472Y-3.0906
X4.5866Y-3.5039
X4.8622Y-3.4449
X4.9016Y-3.5039
X5.0984Y-3.4055
X5.1969Y-3.5039
X5.2367Y-3.0512
X5.2559Y-3.5039
X5.5292Y-3.4449
X6.437Y-3.0906
T2
X4.5206Y-3.2667
X4.5206Y-3.3179
X4.5718Y-3.2667
X4.5718Y-3.3179
X4.623Y-3.2667
X4.623Y-3.3179
X5.1888Y-3.2667
X5.1888Y-3.3179
X5.24Y-3.2667
X5.24Y-3.3179
X5.2911Y-3.2667
X5.2911Y-3.3179
T3
X4.0153Y-2.3458
X4.1153Y-2.3458
X4.2153Y-2.3458
X4.3153Y-2.3458
X4.3753Y-4.2458
X4.4153Y-2.3458
X4.4753Y-4.2458
X4.5153Y-2.3458
X4.5753Y-4.2458
X4.6153Y-2.3458
X4.6753Y-4.2458
X4.7153Y-2.3458
X4.7753Y-4.2458
X4.8153Y-2.3458
X4.8753Y-4.2458
X4.9153Y-2.3458
X4.9753Y-4.2458
X5.0753Y-2.3458
X5.0753Y-4.2458
X5.1753Y-2.3458
X5.2753Y-2.3458
X5.2753Y-4.2458
X5.3753Y-2.3458
X5.3753Y-4.2458
X5.4753Y-2.3458
X5.4753Y-4.2458
X5.5753Y-2.3458
X5.5753Y-4.2458
X5.6753Y-2.3458
X5.6753Y-4.2458
X5.7753Y-2.3458
X5.7753Y-4.2458
X5.7803Y-3.1458
X5.7803Y-3.2458
X5.7803Y-3.3458
X5.8753Y-4.2458
X5.8803Y-3.1458
X5.8803Y-3.2458
X5.8803Y-3.3458
X5.9753Y-2.3458
X5.9753Y-4.2458
X6.0753Y-2.3458
X6.1753Y-2.3458
X6.1753Y-4.2458
X6.2753Y-2.3458
X6.2753Y-4.2458
X6.3753Y-2.3458
X6.3753Y-4.2458
X6.4753Y-2.3458
X6.4753Y-4.2458
X6.5753Y-2.3458
X6.5753Y-4.2458
X6.6753Y-2.3458
X6.6753Y-4.2458
X6.7753Y-4.2458
X6.8753Y-4.2458
X6.9753Y-2.3458
X6.9753Y-2.4458
X6.9753Y-2.5458
X6.9753Y-2.6458
X6.9753Y-2.7458
X6.9753Y-2.8458
X6.9753Y-2.9458
X6.9753Y-3.0458
X6.9753Y-3.1458
X6.9753Y-3.2458
X6.9753Y-3.3458
X6.9753Y-3.4458
X6.9753Y-3.5458
X6.9753Y-3.6458
X6.9753Y-3.7458
X6.9753Y-3.8458
X6.9753Y-3.9458
X6.9753Y-4.0458
X7.0753Y-2.3458
X7.0753Y-2.4458
X7.0753Y-2.5458
X7.0753Y-2.6458
X7.0753Y-2.7458
X7.0753Y-2.8458
X7.0753Y-2.9458
X7.0753Y-3.0458
X7.0753Y-3.1458
X7.0753Y-3.2458
X7.0753Y-3.3458
X7.0753Y-3.4458
X7.0753Y-3.5458
X7.0753Y-3.6458
X7.0753Y-3.7458
X7.0753Y-3.8458
X7.0753Y-3.9458
X7.0753Y-4.0458
T4
X3.9542Y-2.6755
X3.9673Y-3.7479
X4.1042Y-2.6755
X4.1173Y-3.7479
X4.2542Y-2.6755
X4.2673Y-3.7479
X4.4042Y-2.6755
X4.4173Y-3.7479
X4.5542Y-2.6755
X4.5673Y-3.7479
X4.7042Y-2.6755
X4.7173Y-3.7479
X4.8542Y-2.6755
X4.8673Y-3.7479
X5.0042Y-2.6755
X5.0173Y-3.7479
X5.1542Y-2.6755
X5.1673Y-3.7479
X5.3042Y-2.6755
X5.3173Y-3.7479
X5.4542Y-2.6755
X5.4673Y-3.7479
X5.6042Y-2.6755
X5.6173Y-3.7479
X5.7542Y-2.6755
X5.7673Y-3.7479
X5.9042Y-2.6755
X5.9173Y-3.7479
X6.0542Y-2.6755
X6.0673Y-3.7479
X6.2042Y-2.6755
X6.2173Y-3.7479
X6.3542Y-2.6755
X6.3673Y-3.7479
X6.5042Y-2.6755
X6.5173Y-3.7479
X6.6542Y-2.6755
X6.6673Y-3.7479
X6.8042Y-2.6755
X6.8173Y-3.7479
M30
